<?xml version="1.0" encoding="utf-8"?>
<!-- Generator: Adobe Illustrator 24.2.3, SVG Export Plug-In . SVG Version: 6.00 Build 0)  -->
<svg version="1.1" id="Layer_1" xmlns="http://www.w3.org/2000/svg" xmlns:xlink="http://www.w3.org/1999/xlink" x="0px" y="0px"
	 viewBox="0 0 180 180" style="enable-background:new 0 0 180 180;" xml:space="preserve">
<style type="text/css">
	.st0{fill:#323443;}
	.st1{fill:#3CF686;}
</style>
<g>
	<path class="st0" d="M32,0h116c17.7,0,32,14.3,32,32v116c0,17.7-14.3,32-32,32H32c-17.7,0-32-14.3-32-32V32C0,14.3,14.3,0,32,0z"/>
</g>
<path class="st1" d="M75.2,20.6l42.7,22.8L117,45l-1.8-1c-7.6-4-13.4-2.3-17.4,5.2l-16,30.2c-3.1,5.8-7.2,9.4-12.4,10.9
	c-3.4,1-7.1,1.2-11.1,0.5c-3.9-0.6-7.8-1.9-11.6-4c-3.6-1.9-6.5-4.1-8.9-6.7c-2.3-2.6-3.9-5.3-4.8-8.2c-0.5-1.9-0.7-3.8-0.6-5.7
	c0.1-1.9,0.5-3.5,1.2-4.9c1.2-2.3,3.1-3.8,5.6-4.6s4.9-0.6,7.2,0.7c2.3,1.2,3.7,2.9,4.4,5.1c0.6,2.2,0.4,4.4-0.8,6.7
	c-1.9,3.6-5.2,5-9.9,4.3c-1.4-0.2-2.3-0.1-2.5,0.4c-0.4,0.8-0.1,2.1,1.1,4c1.4,2.4,3.8,4.5,7.1,6.3c2.8,1.5,5.4,2.2,7.8,2.3
	c2.5,0.1,4.7-0.5,6.7-1.8s3.7-3.2,5.1-5.8l19.4-36.4c4-7.5,2.2-13.3-5.3-17.3l-5.2-2.8L75.2,20.6z"/>
<path class="st1" d="M147.5,61.3l-5.2-2.8c-7.6-4-13.4-2.3-17.4,5.2l-19.4,36.4c-1.4,2.6-2.1,5.1-2,7.5c0,2.4,0.8,4.6,2.2,6.6
	c1.4,2,3.5,3.8,6.3,5.2c3.4,1.8,6.4,2.6,9.2,2.4c2.2-0.1,3.5-0.6,3.9-1.3c0.3-0.5-0.1-1.2-1.1-2.3c-3.2-3.5-3.9-7-2-10.6
	c1.2-2.2,2.9-3.7,5.1-4.4c2.2-0.7,4.4-0.4,6.7,0.8c2.3,1.2,3.8,3.1,4.5,5.6s0.5,4.9-0.7,7.2c-0.7,1.4-1.9,2.6-3.4,3.8
	c-1.5,1.1-3.2,2-5.1,2.6c-2.9,0.9-6.1,1.1-9.5,0.6s-6.9-1.7-10.5-3.6c-3.8-2-7.1-4.5-9.8-7.4c-2.7-2.9-4.6-6.1-5.7-9.5
	C92,98.2,92.7,92.7,95.8,87l16.1-30.1c4-7.5,2.2-13.3-5.3-17.3l-1.8-1l0.9-1.6l42.7,22.8L147.5,61.3z"/>
<path class="st1" d="M52.3,140.5L89,112.4c1.9-1.5,3.2-3,4-4.4c0.8-1.5,0.9-5.8,0.1-7.2L103,114l10.4,8.1c-4.5-2.4-11.3-2.6-17.4,2
	l-45.2,34.4l-1.5-0.9"/>
<path class="st1" d="M49.2,157.7l-1.6-0.7l3.4-56.7c0.5-7.7-3.3-13-7.8-15.4l12.3,3.9l16.1,0.7c-1.6,0.2-4.8,2.8-5.6,4.3
	c-0.8,1.4-1.2,3.3-1.4,5.7l-2.9,46.1"/>
</svg>
