<?xml version="1.0" encoding="utf-8"?>
<!-- Generator: Adobe Illustrator 24.2.3, SVG Export Plug-In . SVG Version: 6.00 Build 0)  -->
<svg version="1.1" id="Layer_1" xmlns="http://www.w3.org/2000/svg" xmlns:xlink="http://www.w3.org/1999/xlink" x="0px" y="0px"
	 viewBox="0 0 118.2 118.2" style="enable-background:new 0 0 118.2 118.2;" xml:space="preserve">
<style type="text/css">
	.st0{fill:#1D1F23;}
	.st1{fill:none;stroke:#000000;stroke-width:0.6567;}
	.st2{fill:#61DAFB;}
	.st3{fill:none;stroke:#61DAFB;stroke-width:3.2837;}
</style>
<g>
	<path class="st0" d="M21,0h76.2c11.6,0,21,9.4,21,21v76.2c0,11.6-9.4,21-21,21H21c-11.6,0-21-9.4-21-21V21C0,9.4,9.4,0,21,0z"/>
	<path class="st1" d="M21,0.3h76.2c11.4,0,20.7,9.3,20.7,20.7v76.2c0,11.4-9.3,20.7-20.7,20.7H21c-11.4,0-20.7-9.3-20.7-20.7V21
		C0.3,9.6,9.6,0.3,21,0.3z"/>
</g>
<path class="st2" d="M59.4,64.6c3.2,0,5.8-2.6,5.8-5.8S62.6,53,59.4,53s-5.8,2.6-5.8,5.8S56.2,64.6,59.4,64.6z"/>
<path class="st3" d="M59.4,70.7c17.2,0,31.1-5.3,31.1-11.9c0-6.6-13.9-11.9-31.1-11.9c-17.2,0-31.1,5.3-31.1,11.9
	C28.3,65.4,42.2,70.7,59.4,70.7z"/>
<path class="st3" d="M49.1,64.8c8.6,14.9,20.1,24.3,25.8,21c5.7-3.3,3.3-18-5.3-32.8c-8.6-14.9-20.1-24.3-25.8-21
	C38.1,35.2,40.5,49.9,49.1,64.8z"/>
<path class="st3" d="M49.1,52.9c-8.6,14.9-10.9,29.6-5.3,32.8c5.7,3.3,17.2-6.1,25.8-21c8.6-14.9,10.9-29.6,5.3-32.8
	C69.2,28.7,57.7,38,49.1,52.9z"/>
</svg>
